<?xml version="1.0" encoding="utf-8"?>
<!-- Generator: Adobe Illustrator 24.3.0, SVG Export Plug-In . SVG Version: 6.00 Build 0)  -->
<svg version="1.1" id="svg634" xmlns:svg="http://www.w3.org/2000/svg"
	 xmlns="http://www.w3.org/2000/svg" xmlns:xlink="http://www.w3.org/1999/xlink" x="0px" y="0px" viewBox="0 0 212.5 212.5"
	 style="enable-background:new 0 0 212.5 212.5;" xml:space="preserve">
<style type="text/css">
	.st0{fill-rule:evenodd;clip-rule:evenodd;fill:#E9C656;}
	.st1{fill:#676767;}
	.st2{fill:#CD4233;}
	.st3{opacity:0.56;}
	.st4{fill:#FFFFFF;}
	.st5{fill:#E9C656;}
	.st6{fill:none;stroke:#DAB349;stroke-width:0.4438;stroke-linecap:round;stroke-miterlimit:10;}
	.st7{fill:none;stroke:#DAB349;stroke-width:0.4572;stroke-linecap:round;stroke-miterlimit:10;}
	.st8{fill:none;stroke:#DAB349;stroke-width:0.4971;stroke-linecap:round;stroke-miterlimit:10;}
</style>
<circle id="path4539" class="st0" cx="106.2" cy="106.2" r="106.2"/>
<g>
	<path class="st1" d="M63.5,96.5c0,5.2-4.2,9.4-9.4,9.5c-5.1,0-9.4-4.2-9.4-9.4c0-5.1,4.3-9.5,9.4-9.5
		C59.2,87.1,63.5,91.3,63.5,96.5z M48.5,96.5c0,3.1,2.4,5.6,5.5,5.6c3,0,5.7-2.6,5.6-5.6c0-3-2.6-5.5-5.6-5.5
		C51,91,48.5,93.4,48.5,96.5z"/>
	<path class="st1" d="M58.3,62.3c-5.4,4.1-10.7,8.2-16.1,12.3c-0.4-3.7-2.2-6.4-5.6-8.2c5.8-3.5,11.5-7,17.4-10.5
		C54.3,58.8,55.7,60.9,58.3,62.3z"/>
	<path class="st1" d="M34.3,84.7c4.3-1,6.9-3.6,7.9-7.9c3.6,3,7.2,6,10.8,9c-5.5,1-8.6,4.2-9.7,9.7C40.2,91.8,37.3,88.3,34.3,84.7z"
		/>
	<path class="st1" d="M24.6,75.3c0-4.5,3.6-8.2,8.1-8.2c4.4,0,8.2,3.6,8.2,8.1c0,4.6-3.6,8.3-8.1,8.3C28.3,83.4,24.6,79.7,24.6,75.3
		z M32.7,80.2c2.7,0,5-2.2,5-4.9c0-2.7-2.3-5-5-5c-2.7,0-5,2.3-5,5C27.7,77.9,30,80.2,32.7,80.2z"/>
	<path class="st1" d="M41,110c1-2,1.9-4,2.9-6c0.3-0.6,0.6-1.2,0.9-1.8c4.4,6.9,14.2,6.8,18.6,0c1.3,2.6,2.5,5.2,3.8,7.8
		C58.4,110,49.8,110,41,110z"/>
	<path class="st1" d="M55.3,55.8c-0.3-3.5,2.3-6.5,5.8-6.8c3.5-0.3,6.6,2.4,6.8,5.9c0.2,3.5-2.4,6.5-5.9,6.8
		C58.6,61.9,55.5,59.3,55.3,55.8z M57.5,55.6c0.2,2.2,2.1,3.9,4.3,3.8c2.2-0.2,3.9-2.1,3.8-4.4c-0.2-2.2-2.1-3.9-4.4-3.8
		C59,51.5,57.4,53.4,57.5,55.6z"/>
	<path class="st1" d="M54.1,100.8c2.4,0,4.3-1.9,4.2-4.3c0-2.3-1.9-4.2-4.3-4.2c-2.4,0-4.3,1.9-4.2,4.3
		C49.8,98.9,51.7,100.8,54.1,100.8z"/>
	<path class="st1" d="M36.4,75.2c0-2-1.6-3.6-3.6-3.7c-2,0-3.7,1.7-3.7,3.7c0,2,1.6,3.6,3.6,3.6C34.8,78.9,36.4,77.3,36.4,75.2z"/>
	<path class="st1" d="M61.4,52.6c-1.5,0.1-2.6,1.4-2.5,2.9c0.1,1.5,1.4,2.7,2.9,2.6c1.5-0.1,2.7-1.5,2.6-3
		C64.2,53.6,62.9,52.5,61.4,52.6z"/>
	<path class="st1" d="M54.1,100.8c-2.3,0-4.2-1.9-4.3-4.2c0-2.4,1.9-4.3,4.2-4.3c2.3,0,4.2,1.9,4.3,4.2
		C58.3,98.9,56.5,100.8,54.1,100.8z"/>
	<path class="st1" d="M36.4,75.2c0,2.1-1.6,3.6-3.7,3.6c-2,0-3.6-1.7-3.6-3.6c0-2,1.7-3.7,3.7-3.7C34.8,71.6,36.4,73.2,36.4,75.2z"
		/>
	<g>
		<path class="st1" d="M34.9,116.9c0-1.9,0-3.7,0-5.6c12.8,0,25.5,0,38.3,0c0,1.8,0,3.7,0,5.6C60.4,116.9,47.7,116.9,34.9,116.9z"/>
		<path class="st1" d="M61.4,52.6c1.5-0.1,2.8,1,3,2.5c0.1,1.5-1.1,2.9-2.6,3c-1.5,0.1-2.8-1.1-2.9-2.6C58.7,54,59.9,52.7,61.4,52.6
			z"/>
	</g>
	<path class="st1" d="M79,56.4c0.4,0.1,0.7,0.3,0.9,0.4c0.3,0.1,0.5,0.3,0.8,0.3c0.2,0,0.4,0,0.6-0.1c1.9-0.7,3.8-1.4,5.7-2.1
		c0,0,0.1,0,0.2,0c1.5,3.9,3,7.8,4.5,11.9c-1-0.4-1.8-0.6-2.3-1.5c-0.9-1.9-2-3.6-3.1-5.6c-1,0.6-2,1.1-3,1.7c0,0-0.2,0.1-0.2,0.6
		c0,0,0,0.1,0,0.5L79,56.4z"/>
	<circle class="st1" cx="77.2" cy="62.1" r="2.4"/>
	<path class="st1" d="M69.3,54.9c0,0.7,0,1.9-0.6,3.3c-0.6,1.4-1.5,2.3-2,2.7c1.3,0.6,2.7,1.2,4,1.9c0,0,0.7,0.4,0.9,1.3l3.4-7.6
		c0,0-0.9,0.7-1.9,0.2L69.3,54.9z"/>
	<path class="st1" d="M76.1,56.2c-3.3,0.6-5.4,3.7-4.9,7s3.7,5.4,7,4.9s5.4-3.7,4.9-7C82.5,57.7,79.4,55.6,76.1,56.2z M77.8,65.6
		c-2,0.4-3.9-1-4.2-2.9c-0.4-2,1-3.9,2.9-4.2c2-0.4,3.9,1,4.2,2.9C81.1,63.4,79.8,65.3,77.8,65.6z"/>
	<g>
		<path class="st2" d="M93,81.1l1.4-14.2c0.4-1.9-0.3-2.6-0.3-2.6c-1-1.2-0.9-2.6-0.9-2.6c0.3-5.5,0.1-7.1,0.1-7.1
			c-0.3-0.8-0.1-1.8-0.1-1.8c0.5,0,0.2-0.6,0.2-0.6c-0.2-0.1-0.1-1.1-0.1-1.1c0.6-0.2,0.1-0.7,0.1-0.7l-1.5-0.2l-1.5-0.2
			c0,0-0.6,0.4-0.1,0.7c0,0-0.1,1-0.3,1.1c0,0-0.4,0.5,0.1,0.6c0,0,0,0.9-0.4,1.7c0,0-0.6,1.5-1.3,6.9c0,0-0.1,1.4-1.4,2.4
			c0,0-0.8,0.6-0.8,2.5l-1.4,14.2c0,0-0.5,1.9,2.2,2.1l1.8,0.2l1.8,0.2C93.1,83,93,81.1,93,81.1z"/>
		<g class="st3">
			<path class="st4" d="M86.6,73.7C86.6,73.7,86.6,73.7,86.6,73.7c-0.3,0-0.5-0.2-0.4-0.5l0.7-7.9c0-0.4,0.2-0.7,0.4-1l1-1.1
				c0.2-0.2,0.4-0.2,0.6,0c0.2,0.2,0.2,0.4,0,0.6L88,65c-0.1,0.1-0.2,0.3-0.2,0.5L87,73.3C87,73.6,86.8,73.7,86.6,73.7z"/>
		</g>
	</g>
	<path class="st1" d="M81.7,66c-0.3,0.3-0.4,0.4-0.4,0.4c-0.3,0.4-0.2,0.6-0.2,0.6c0.3,1.1,0.6,2.2,0.9,3.3c2.1-0.6,4.1-1.1,6.1-1.8
		c1-0.3,1.7,0.1,2.7,0.5c-4,1.8-7.8,3.5-11.6,5.3c-0.1-0.1-0.1-0.1-0.2-0.2c-0.8-1.8-1.7-3.7-2.5-5.5c-0.1-0.1-0.2-0.3-0.4-0.4
		c-0.2-0.2-0.5-0.2-0.8-0.4c-0.2-0.1-0.5-0.2-0.9-0.4L81.7,66z"/>
	<path class="st5" d="M33.9,117.3l0.1-1.8c0,0,3.7,0.3,4.5,1.8H33.9z"/>
	<path class="st6" d="M33.4,115.5c0.1,0,3.7-0.2,5.5,2.1"/>
	<path class="st5" d="M54.9,117.1c0,0,2.7-1.8,5.5-1c0.4,0.1,0.8,0.2,1.2,0.2c1.2,0.1,3.8,0.3,5.3-0.1c0,0,5.1-1.4,7.5-1.2v2.6
		L54.9,117.1z"/>
	<path class="st6" d="M54.7,117.3c0,0,3-2,5.7-1.2c0.4,0.1,0.8,0.2,1.1,0.2c1.4,0.1,4.4,0.2,5.5-0.1c0,0,0.1,0,0.1,0
		c1.3-0.4,5.6-1.3,6.8-1.2"/>
</g>
<g>
	<g>
		<path class="st1" d="M182.4,163.7c0-2.7,0-5.2,0-7.8c-18,0-35.9,0-53.9,0c0,2.6,0,5.2,0,7.8C146.5,163.7,164.4,163.7,182.4,163.7z
			"/>
		<path class="st1" d="M155.5,121.8c7.2,0,13.2,6.1,13.2,13.3c0,7.3-6,13.2-13.3,13.2c-7.3,0-13.3-6-13.3-13.3
			C142.2,127.7,148.2,121.7,155.5,121.8z M155.4,127.2c-4.3,0-7.9,3.5-7.9,7.8c0,4.3,3.7,8,7.9,7.9c4.4-0.1,7.8-3.6,7.8-7.9
			C163.2,130.7,159.8,127.2,155.4,127.2z"/>
		<path class="st1" d="M183.3,118.3c-6-1.4-9.7-5-11.1-11.1c-5.1,4.2-10.1,8.4-15.2,12.7c7.7,1.4,12.1,5.9,13.6,13.6
			C174.8,128.4,179,123.4,183.3,118.3z"/>
		<path class="st1" d="M185.4,116.5c-6.4,0-11.5-5.2-11.4-11.6c0-6.2,5.3-11.4,11.5-11.4c6.3,0.1,11.5,5.2,11.5,11.6
			C196.9,111.4,191.7,116.6,185.4,116.5z M192.4,105c0-3.8-3.2-7-7-7c-3.8,0-7,3.2-7,7.1c0,3.8,3.2,6.9,7,6.9
			C189.3,112,192.5,108.8,192.4,105z"/>
		<path class="st1" d="M173.8,153.9c-1.4-2.9-2.7-5.6-4.1-8.4c-0.4-0.8-0.8-1.7-1.3-2.6c-6.2,9.7-20,9.5-26.2,0
			c-1.8,3.7-3.5,7.3-5.3,11C149.3,153.9,161.5,153.9,173.8,153.9z"/>
		<path class="st1" d="M161.4,135.1c0-3.3-2.6-6-6-6.1c-3.3,0-6,2.6-6,5.9c0,3.3,2.6,6,6,6.1C158.7,141,161.3,138.4,161.4,135.1z"/>
		<path class="st1" d="M185.5,110.2c2.8,0,5.1-2.3,5.1-5.1c0-2.8-2.4-5.2-5.2-5.2c-2.8,0-5,2.4-5,5.2
			C180.3,107.9,182.6,110.2,185.5,110.2z"/>
		<path class="st1" d="M155.4,141c3.3,0,6-2.6,6-5.9c0-3.3-2.6-6-6-6.1c-3.3,0-6,2.6-6,5.9C149.4,138.3,152,141,155.4,141z"/>
		<path class="st1" d="M180.3,105.1c0,2.9,2.3,5.1,5.2,5.1c2.8,0,5.1-2.3,5.1-5.1c0-2.8-2.4-5.2-5.2-5.2
			C182.6,99.9,180.3,102.3,180.3,105.1z"/>
		<path class="st1" d="M147.3,91.6c8.3,4.8,16.4,9.5,24.8,14.2c-0.1-5.3,1.9-9.4,6.3-12.5c-8.8-3.8-17.4-7.6-26.2-11.5
			C152.2,86,150.6,89.2,147.3,91.6z"/>
		<path class="st1" d="M142,91.5c-4.9,0.3-9.2-3.5-9.5-8.4c-0.3-4.9,3.5-9.2,8.4-9.4c4.9-0.3,9.1,3.5,9.4,8.4
			C150.6,86.9,146.8,91.2,142,91.5z M141.1,76.9c-3.2,0.2-5.6,2.9-5.4,6.1c0.2,3.1,2.9,5.6,6.1,5.4c3.1-0.2,5.6-2.9,5.4-6.1
			C146.9,79,144.3,76.7,141.1,76.9z"/>
		<path class="st1" d="M137.5,82.8c0.1,2.1,2,3.8,4.2,3.7c2.1-0.2,3.7-2,3.6-4.1c-0.1-2.1-2-3.7-4.1-3.6
			C139.1,78.8,137.4,80.7,137.5,82.8z"/>
		<path class="st1" d="M141.2,78.7c-2.1,0.1-3.8,2-3.6,4.1c0.1,2.1,2,3.8,4.2,3.7c2.1-0.2,3.7-2,3.6-4.1
			C145.1,80.2,143.3,78.6,141.2,78.7z"/>
		<path class="st1" d="M119.2,105.7c-0.3-0.5-0.4-0.7-0.4-0.7c-0.3-0.6-0.7-0.6-0.7-0.6c-1.6-0.1-3.2-0.2-4.8-0.2
			c-0.1,3.1-0.3,6-0.3,8.9c0,1.5-0.9,2.3-1.9,3.4c-0.7-6.1-1.4-12-2-17.8c0.2-0.1,0.2-0.1,0.3-0.1c2.8-0.3,5.7-0.6,8.5-1
			c0.2,0,0.5-0.1,0.8-0.3c0.4-0.2,0.5-0.5,0.8-0.9c0.2-0.3,0.5-0.6,0.9-1.1L119.2,105.7z"/>
		<circle class="st1" cx="126.5" cy="101.3" r="3.3"/>
		<path class="st1" d="M131.7,87.3c0.4,0.8,1.3,2.3,2.9,3.7c1.7,1.4,3.4,1.9,4.3,2.1c-1.3,1.6-2.6,3.3-3.8,4.9c0,0-0.7,0.9-0.3,2.2
			l-9.2-7.3c0,0,1.6,0.3,2.6-0.9L131.7,87.3z"/>
		<path class="st1" d="M118.4,103.7c1.4,4.5,6.1,7,10.6,5.6c4.5-1.4,7-6.1,5.6-10.6c-1.4-4.5-6.1-7-10.6-5.6S117,99.3,118.4,103.7z
			 M121.5,102.7c-0.8-2.7,0.7-5.6,3.4-6.4c2.7-0.8,5.6,0.7,6.4,3.4s-0.7,5.6-3.4,6.4C125.2,107,122.4,105.4,121.5,102.7z"/>
		<g>
			<path class="st2" d="M104.5,106.6c1.2-1.1,2.5-2.1,3.7-3.2c0.5-0.5,0.9-0.6,1.4,0c0.3,0.3,0.7,0.7,1.1,0.8
				c2.4,0.6,3.5,2.7,4.9,4.4c0.6,0.7,0.3,2.1,0.5,3.1c0.1,0.3,0.2,0.9,0.4,0.9c2.3,0.4,3.6,2.2,5.2,3.6c1,0.9,1.9,1.8,2.8,2.7
				c0.6,0.6,0.7,1.2,0.6,2.1c-0.2,1.5-1.1,2.5-2.2,3.4c-1.2,1-2.4,2-3.5,3.1c-1.1,1.1-2.4,1.7-4,1.8c-0.9,0.1-1.4-0.2-1.7-1.1
				c-0.6-1.9-1.1-3.8-1.7-5.7c-0.2-0.5-0.5-0.9-0.9-1.2c-2-1.3-4-2.6-6-3.9c-2-1.2-3.6-2.7-3.8-5.2c0-0.2-0.1-0.4-0.2-0.5
				c-1.4-1.1-0.4-1.7,0.5-2.4C102.5,108.3,103.5,107.4,104.5,106.6z"/>
			<g class="st3">
				<path class="st4" d="M110.4,106.6c-0.1,0-0.1,0-0.2,0l-2-1c-0.2-0.1-0.3-0.4-0.2-0.6c0.1-0.2,0.4-0.3,0.6-0.2l2,1
					c0.2,0.1,0.3,0.4,0.2,0.6C110.7,106.5,110.5,106.6,110.4,106.6z"/>
			</g>
			<g class="st3">
				<path class="st4" d="M114.4,114.3C114.4,114.3,114.4,114.3,114.4,114.3c-0.3,0-0.5-0.2-0.5-0.5c0.1-5.4-2.4-6.5-2.4-6.5
					c-0.2-0.1-0.3-0.4-0.3-0.6c0.1-0.2,0.4-0.4,0.6-0.3c0.1,0,3.1,1.3,3,7.4C114.8,114.1,114.6,114.3,114.4,114.3z"/>
			</g>
			<g class="st3">
				<path class="st4" d="M122.7,122.7c-0.1,0-0.2,0-0.2-0.1c-0.2-0.1-0.3-0.4-0.2-0.6c0.2-0.3,0.3-0.8,0.4-1.4c0-0.2,0-0.3-0.2-0.4
					l-5.4-5.3c-0.2-0.2-0.2-0.5,0-0.6c0.2-0.2,0.5-0.2,0.6,0l5.4,5.3c0.3,0.3,0.5,0.8,0.4,1.2c-0.1,0.5-0.2,1.2-0.5,1.7
					C123,122.6,122.8,122.7,122.7,122.7z"/>
			</g>
		</g>
		<path class="st1" d="M133.3,106.1c-0.3,0.5-0.7,0.9-0.9,1.1c-0.3,0.3-0.6,0.6-0.7,1c-0.1,0.3-0.2,0.6-0.2,0.8
			c0.1,2.8,0.2,5.7,0.4,8.5c0,0.1,0,0.1-0.1,0.3c-5.9,0.3-11.8,0.6-17.9,0.9c0.9-1.1,1.5-2.1,3-2.4c2.9-0.5,5.7-1.1,8.8-1.7
			c-0.3-1.6-0.6-3.2-1-4.7c0,0,0-0.3-0.7-0.6c0,0-0.2-0.1-0.7-0.3L133.3,106.1z"/>
		<path class="st5" d="M124.6,160.1c0,0,3.7-2.9,8-0.8c0.9,0.4,1.7,1.1,2.3,1.9c0.7,0.8,2.2,2.1,5.4,2c0.1,0,0.3,0,0.4,0
			c0.7-0.1,3.4-0.2,5.7,1.3h-21L124.6,160.1z"/>
		<path class="st7" d="M124.8,159.9c0,0,3.7-2.9,8-0.8c0.9,0.4,1.7,1.1,2.3,1.9c0.7,0.8,2.2,2.1,5.4,2c0.1,0,0.3,0,0.4,0
			c0.7-0.1,3.4-0.2,5.7,1.3"/>
	</g>
	<path class="st5" d="M184.4,161.2c0,0-4.6-0.3-11,2.9l11-0.3V161.2z"/>
	<path class="st8" d="M183.7,161.2c0,0-7.6,0.3-11.1,4"/>
</g>
</svg>
